<?xml version="1.0" encoding="UTF-8" standalone="no"?>
<svg
   height="55px"
   version="1.1"
   width="128px"
   id="svg1"
   sodipodi:docname="final_wm_lifeline_icon.svg"
   inkscape:version="1.3.2 (091e20e, 2023-11-25)"
   xmlns:inkscape="http://www.inkscape.org/namespaces/inkscape"
   xmlns:sodipodi="http://sodipodi.sourceforge.net/DTD/sodipodi-0.dtd"
   xmlns="http://www.w3.org/2000/svg"
   xmlns:svg="http://www.w3.org/2000/svg">
  <sodipodi:namedview
     id="namedview1"
     pagecolor="#505050"
     bordercolor="#eeeeee"
     borderopacity="1"
     inkscape:showpageshadow="0"
     inkscape:pageopacity="0"
     inkscape:pagecheckerboard="0"
     inkscape:deskcolor="#505050"
     inkscape:zoom="4.1308945"
     inkscape:cx="66.20842"
     inkscape:cy="17.3086"
     inkscape:window-width="1312"
     inkscape:window-height="958"
     inkscape:window-x="0"
     inkscape:window-y="44"
     inkscape:window-maximized="0"
     inkscape:current-layer="svg1" />
  <defs
     id="defs1" />
  <path
     d="M 5.8355481,25.919736 H 21.304356 c 2.42648,0 4.530358,0.823841 6.311636,2.471523 l 3.755466,3.473807 c 2.184569,2.020725 3.201618,1.989978 5.365091,0.02319 l 4.622881,-4.202619 c 1.795448,-1.632227 3.551064,-1.59045 5.266844,0.12533 l 3.951958,3.951959 c 2.04398,2.04398 3.131047,2.066963 5.266845,0.12533 l 4.62288,-4.202619 c 1.795449,-1.632227 3.551065,-3.30623 5.266845,-5.02201 l 3.951958,-3.951959 c 1.71578,-1.71578 3.471395,-1.757557 5.266844,-0.12533 l 4.622881,4.202619 c 2.14001,1.945463 3.183364,1.958151 5.266845,-0.12533 l 3.951958,-3.951959 c 1.71578,-1.71578 3.441364,-1.725696 5.176751,-0.02975 l 4.803064,4.693906 c 1.735387,1.695948 3.816317,2.543921 6.242797,2.543921 h 17.28867 c 2.26866,-0.02565 4.20947,1.624052 4.54966,3.867203 h -4.54966 -17.28867 c -2.42648,0 -4.53744,-0.816114 -6.332888,-2.448341 l -4.62288,-4.202618 c -2.239524,-2.035931 -3.060624,-2.08089 -5.266844,0.12533 l -3.951958,3.951958 c -1.71578,1.71578 -3.471396,1.757557 -5.266845,0.12533 L 74.953604,23.13598 c -2.161529,-1.965026 -3.163828,-1.977686 -5.266844,0.12533 l -3.951958,3.951958 c -1.71578,1.71578 -3.471396,3.389784 -5.266845,5.022011 l -4.62288,4.202618 c -1.79545,1.632227 -3.551065,1.590451 -5.266845,-0.12533 l -3.951958,-3.951958 c -2.083482,-2.083481 -3.076211,-2.116815 -5.266844,-0.12533 l -4.622881,4.202618 c -1.795449,1.632227 -3.551064,1.590451 -5.266844,-0.12533 l -3.951959,-3.951958 c -1.71578,-1.715781 -3.78691,-2.57367 -6.21339,-2.57367 H 5.8355481 C 3.5668955,29.81259 1.6260733,28.162887 1.2858986,25.919736 h 4.5496495 9.5542639"
     fill="none"
     stroke="#ffffff"
     stroke-width="1.45589"
     id="path1"
     sodipodi:nodetypes="csssssssssssssssssscccsssssssssssssssssscccc" />
</svg>
